<svg width="54" height="58" viewBox="0 0 54 58" fill="none" xmlns="http://www.w3.org/2000/svg">
<path d="M22.293 10.1484H44.412C46.8672 10.1484 48.8357 12.2674 48.8357 14.9102V19.6719H41.2932L35.5644 25.8383V35.3617L31.1406 40.1235V48.2422H22.293V40.1235L17.8693 35.3617V23.0289L22.293 18.2672V10.1484ZM39.9882 27.7906V33.957H48.8357V24.4336H43.1069L39.9882 27.7906ZM14.7505 19.6719L17.8693 16.3149V10.1484H9.02169C6.56648 10.1484 4.5979 12.2674 4.5979 14.9102V19.6719H14.7505ZM13.4455 33.957V24.4336H4.5979V33.957H13.4455ZM17.8693 42.0758L14.7505 38.7188H4.5979V43.4805C4.5979 46.1232 6.56648 48.2422 9.02169 48.2422H17.8693V42.0758ZM38.6832 38.7188L35.5644 42.0758V48.2422H44.412C46.8672 48.2422 48.8357 46.1232 48.8357 43.4805V38.7188H38.6832Z" fill="#3C9DFF"/>
</svg>
