<svg width="262" height="356" viewBox="0 0 262 356" fill="none" xmlns="http://www.w3.org/2000/svg">
<g clip-path="url(#clip0_141_9)">
<rect width="262" height="356" rx="25" fill="white"/>
<rect x="262" width="22" height="256" transform="rotate(90 262 0)" fill="#083D74"/>
<rect x="251" y="12" width="11.0001" height="344" fill="#083D74"/>
<rect y="360" width="25" height="262" transform="rotate(-90 0 360)" fill="#083D74"/>
<rect width="11" height="356" fill="#083D74"/>
<path d="M41.32 211.92V240H34.48V211.92H41.32ZM53.1169 210.4V240H46.2769V210.4H53.1169ZM61.5138 215.36C60.3138 215.36 59.3271 215.013 58.5538 214.32C57.8071 213.6 57.4338 212.72 57.4338 211.68C57.4338 210.613 57.8071 209.733 58.5538 209.04C59.3271 208.32 60.3138 207.96 61.5138 207.96C62.6871 207.96 63.6471 208.32 64.3938 209.04C65.1671 209.733 65.5538 210.613 65.5538 211.68C65.5538 212.72 65.1671 213.6 64.3938 214.32C63.6471 215.013 62.6871 215.36 61.5138 215.36ZM64.9138 217.68V240H58.0738V217.68H64.9138ZM98.3506 217.44C101.124 217.44 103.324 218.28 104.951 219.96C106.604 221.64 107.431 223.973 107.431 226.96V240H100.631V227.88C100.631 226.44 100.244 225.333 99.4706 224.56C98.724 223.76 97.684 223.36 96.3506 223.36C95.0173 223.36 93.964 223.76 93.1906 224.56C92.444 225.333 92.0706 226.44 92.0706 227.88V240H85.2706V227.88C85.2706 226.44 84.884 225.333 84.1106 224.56C83.364 223.76 82.324 223.36 80.9906 223.36C79.6573 223.36 78.604 223.76 77.8306 224.56C77.084 225.333 76.7106 226.44 76.7106 227.88V240H69.8706V217.68H76.7106V220.48C77.404 219.547 78.3106 218.813 79.4306 218.28C80.5506 217.72 81.8173 217.44 83.2306 217.44C84.9106 217.44 86.404 217.8 87.7106 218.52C89.044 219.24 90.084 220.267 90.8306 221.6C91.604 220.373 92.6573 219.373 93.9906 218.6C95.324 217.827 96.7773 217.44 98.3506 217.44ZM115.654 215.36C114.454 215.36 113.468 215.013 112.694 214.32C111.948 213.6 111.574 212.72 111.574 211.68C111.574 210.613 111.948 209.733 112.694 209.04C113.468 208.32 114.454 207.96 115.654 207.96C116.828 207.96 117.788 208.32 118.534 209.04C119.308 209.733 119.694 210.613 119.694 211.68C119.694 212.72 119.308 213.6 118.534 214.32C117.788 215.013 116.828 215.36 115.654 215.36ZM119.054 217.68V240H112.214V217.68H119.054ZM136.451 234.2V240H132.971C130.491 240 128.558 239.4 127.171 238.2C125.785 236.973 125.091 234.987 125.091 232.24V223.36H122.371V217.68H125.091V212.24H131.931V217.68H136.411V223.36H131.931V232.32C131.931 232.987 132.091 233.467 132.411 233.76C132.731 234.053 133.265 234.2 134.011 234.2H136.451ZM138.901 228.8C138.901 226.507 139.328 224.493 140.181 222.76C141.061 221.027 142.248 219.693 143.741 218.76C145.235 217.827 146.901 217.36 148.741 217.36C150.315 217.36 151.688 217.68 152.861 218.32C154.061 218.96 154.981 219.8 155.621 220.84V217.68H162.461V240H155.621V236.84C154.955 237.88 154.021 238.72 152.821 239.36C151.648 240 150.275 240.32 148.701 240.32C146.888 240.32 145.235 239.853 143.741 238.92C142.248 237.96 141.061 236.613 140.181 234.88C139.328 233.12 138.901 231.093 138.901 228.8ZM155.621 228.84C155.621 227.133 155.141 225.787 154.181 224.8C153.248 223.813 152.101 223.32 150.741 223.32C149.381 223.32 148.221 223.813 147.261 224.8C146.328 225.76 145.861 227.093 145.861 228.8C145.861 230.507 146.328 231.867 147.261 232.88C148.221 233.867 149.381 234.36 150.741 234.36C152.101 234.36 153.248 233.867 154.181 232.88C155.141 231.893 155.621 230.547 155.621 228.84ZM166.05 228.8C166.05 226.507 166.476 224.493 167.33 222.76C168.21 221.027 169.396 219.693 170.89 218.76C172.383 217.827 174.05 217.36 175.89 217.36C177.356 217.36 178.69 217.667 179.89 218.28C181.116 218.893 182.076 219.72 182.77 220.76V210.4H189.61V240H182.77V236.8C182.13 237.867 181.21 238.72 180.01 239.36C178.836 240 177.463 240.32 175.89 240.32C174.05 240.32 172.383 239.853 170.89 238.92C169.396 237.96 168.21 236.613 167.33 234.88C166.476 233.12 166.05 231.093 166.05 228.8ZM182.77 228.84C182.77 227.133 182.29 225.787 181.33 224.8C180.396 223.813 179.25 223.32 177.89 223.32C176.53 223.32 175.37 223.813 174.41 224.8C173.476 225.76 173.01 227.093 173.01 228.8C173.01 230.507 173.476 231.867 174.41 232.88C175.37 233.867 176.53 234.36 177.89 234.36C179.25 234.36 180.396 233.867 181.33 232.88C182.29 231.893 182.77 230.547 182.77 228.84ZM204.718 240.32C202.531 240.32 200.558 239.853 198.798 238.92C197.065 237.987 195.691 236.653 194.678 234.92C193.691 233.187 193.198 231.16 193.198 228.84C193.198 226.547 193.705 224.533 194.718 222.8C195.731 221.04 197.118 219.693 198.878 218.76C200.638 217.827 202.611 217.36 204.798 217.36C206.985 217.36 208.958 217.827 210.718 218.76C212.478 219.693 213.865 221.04 214.878 222.8C215.891 224.533 216.398 226.547 216.398 228.84C216.398 231.133 215.878 233.16 214.838 234.92C213.825 236.653 212.425 237.987 210.638 238.92C208.878 239.853 206.905 240.32 204.718 240.32ZM204.718 234.4C206.025 234.4 207.131 233.92 208.038 232.96C208.971 232 209.438 230.627 209.438 228.84C209.438 227.053 208.985 225.68 208.078 224.72C207.198 223.76 206.105 223.28 204.798 223.28C203.465 223.28 202.358 223.76 201.478 224.72C200.598 225.653 200.158 227.027 200.158 228.84C200.158 230.627 200.585 232 201.438 232.96C202.318 233.92 203.411 234.4 204.718 234.4ZM229.107 240.32C227.16 240.32 225.427 239.987 223.907 239.32C222.387 238.653 221.187 237.747 220.307 236.6C219.427 235.427 218.934 234.12 218.827 232.68H225.587C225.667 233.453 226.027 234.08 226.667 234.56C227.307 235.04 228.094 235.28 229.027 235.28C229.88 235.28 230.534 235.12 230.987 234.8C231.467 234.453 231.707 234.013 231.707 233.48C231.707 232.84 231.374 232.373 230.707 232.08C230.04 231.76 228.96 231.413 227.467 231.04C225.867 230.667 224.534 230.28 223.467 229.88C222.4 229.453 221.48 228.8 220.707 227.92C219.934 227.013 219.547 225.8 219.547 224.28C219.547 223 219.894 221.84 220.587 220.8C221.307 219.733 222.347 218.893 223.707 218.28C225.094 217.667 226.734 217.36 228.627 217.36C231.427 217.36 233.627 218.053 235.227 219.44C236.854 220.827 237.787 222.667 238.027 224.96H231.707C231.6 224.187 231.254 223.573 230.667 223.12C230.107 222.667 229.36 222.44 228.427 222.44C227.627 222.44 227.014 222.6 226.587 222.92C226.16 223.213 225.947 223.627 225.947 224.16C225.947 224.8 226.28 225.28 226.947 225.6C227.64 225.92 228.707 226.24 230.147 226.56C231.8 226.987 233.147 227.413 234.187 227.84C235.227 228.24 236.134 228.907 236.907 229.84C237.707 230.747 238.12 231.973 238.147 233.52C238.147 234.827 237.774 236 237.027 237.04C236.307 238.053 235.254 238.853 233.867 239.44C232.507 240.027 230.92 240.32 229.107 240.32Z" fill="#3C9DFF"/>
<path d="M58.32 70.92V99H51.48V70.92H58.32ZM76.8769 76.44C79.4902 76.44 81.5702 77.2933 83.1169 79C84.6902 80.68 85.4769 83 85.4769 85.96V99H78.6769V86.88C78.6769 85.3867 78.2902 84.2267 77.5169 83.4C76.7435 82.5733 75.7035 82.16 74.3969 82.16C73.0902 82.16 72.0502 82.5733 71.2769 83.4C70.5035 84.2267 70.1169 85.3867 70.1169 86.88V99H63.2769V76.68H70.1169V79.64C70.8102 78.6533 71.7435 77.88 72.9169 77.32C74.0902 76.7333 75.4102 76.44 76.8769 76.44ZM102.67 93.2V99H99.19C96.71 99 94.7767 98.4 93.39 97.2C92.0033 95.9733 91.31 93.9867 91.31 91.24V82.36H88.59V76.68H91.31V71.24H98.15V76.68H102.63V82.36H98.15V91.32C98.15 91.9867 98.31 92.4667 98.63 92.76C98.95 93.0533 99.4833 93.2 100.23 93.2H102.67ZM127.52 87.48C127.52 88.12 127.48 88.7867 127.4 89.48H111.92C112.027 90.8667 112.467 91.9333 113.24 92.68C114.04 93.4 115.013 93.76 116.16 93.76C117.867 93.76 119.053 93.04 119.72 91.6H127C126.627 93.0667 125.947 94.3867 124.96 95.56C124 96.7333 122.787 97.6533 121.32 98.32C119.853 98.9867 118.213 99.32 116.4 99.32C114.213 99.32 112.267 98.8533 110.56 97.92C108.853 96.9867 107.52 95.6533 106.56 93.92C105.6 92.1867 105.12 90.16 105.12 87.84C105.12 85.52 105.587 83.4933 106.52 81.76C107.48 80.0267 108.813 78.6933 110.52 77.76C112.227 76.8267 114.187 76.36 116.4 76.36C118.56 76.36 120.48 76.8133 122.16 77.72C123.84 78.6267 125.147 79.92 126.08 81.6C127.04 83.28 127.52 85.24 127.52 87.48ZM120.52 85.68C120.52 84.5067 120.12 83.5733 119.32 82.88C118.52 82.1867 117.52 81.84 116.32 81.84C115.173 81.84 114.2 82.1733 113.4 82.84C112.627 83.5067 112.147 84.4533 111.96 85.68H120.52ZM137.968 80.4C138.768 79.1733 139.768 78.2133 140.968 77.52C142.168 76.8 143.502 76.44 144.968 76.44V83.68H143.088C141.382 83.68 140.102 84.0533 139.248 84.8C138.395 85.52 137.968 86.8 137.968 88.64V99H131.128V76.68H137.968V80.4ZM161.838 76.44C164.451 76.44 166.531 77.2933 168.078 79C169.651 80.68 170.438 83 170.438 85.96V99H163.638V86.88C163.638 85.3867 163.251 84.2267 162.478 83.4C161.704 82.5733 160.664 82.16 159.358 82.16C158.051 82.16 157.011 82.5733 156.238 83.4C155.464 84.2267 155.078 85.3867 155.078 86.88V99H148.238V76.68H155.078V79.64C155.771 78.6533 156.704 77.88 157.878 77.32C159.051 76.7333 160.371 76.44 161.838 76.44ZM196.231 87.48C196.231 88.12 196.191 88.7867 196.111 89.48H180.631C180.738 90.8667 181.178 91.9333 181.951 92.68C182.751 93.4 183.724 93.76 184.871 93.76C186.578 93.76 187.764 93.04 188.431 91.6H195.711C195.338 93.0667 194.658 94.3867 193.671 95.56C192.711 96.7333 191.498 97.6533 190.031 98.32C188.564 98.9867 186.924 99.32 185.111 99.32C182.924 99.32 180.978 98.8533 179.271 97.92C177.564 96.9867 176.231 95.6533 175.271 93.92C174.311 92.1867 173.831 90.16 173.831 87.84C173.831 85.52 174.298 83.4933 175.231 81.76C176.191 80.0267 177.524 78.6933 179.231 77.76C180.938 76.8267 182.898 76.36 185.111 76.36C187.271 76.36 189.191 76.8133 190.871 77.72C192.551 78.6267 193.858 79.92 194.791 81.6C195.751 83.28 196.231 85.24 196.231 87.48ZM189.231 85.68C189.231 84.5067 188.831 83.5733 188.031 82.88C187.231 82.1867 186.231 81.84 185.031 81.84C183.884 81.84 182.911 82.1733 182.111 82.84C181.338 83.5067 180.858 84.4533 180.671 85.68H189.231ZM212.279 93.2V99H208.799C206.319 99 204.386 98.4 202.999 97.2C201.613 95.9733 200.919 93.9867 200.919 91.24V82.36H198.199V76.68H200.919V71.24H207.759V76.68H212.239V82.36H207.759V91.32C207.759 91.9867 207.919 92.4667 208.239 92.76C208.559 93.0533 209.093 93.2 209.839 93.2H212.279Z" fill="#3C9DFF"/>
<path d="M63.19 132.39L44.57 176H34.63L53.39 133.51H29.45V125.11H63.19V132.39ZM84.3393 156.47C84.3393 152.55 85.1093 149.073 86.6493 146.04C88.236 143.007 90.3826 140.673 93.0893 139.04C95.796 137.407 98.806 136.59 102.119 136.59C104.639 136.59 107.043 137.15 109.329 138.27C111.616 139.343 113.436 140.79 114.789 142.61V124.2H124.729V176H114.789V170.26C113.576 172.173 111.873 173.713 109.679 174.88C107.486 176.047 104.943 176.63 102.049 176.63C98.7826 176.63 95.796 175.79 93.0893 174.11C90.3826 172.43 88.236 170.073 86.6493 167.04C85.1093 163.96 84.3393 160.437 84.3393 156.47ZM114.859 156.61C114.859 154.23 114.393 152.2 113.459 150.52C112.526 148.793 111.266 147.487 109.679 146.6C108.093 145.667 106.389 145.2 104.569 145.2C102.749 145.2 101.069 145.643 99.5293 146.53C97.9893 147.417 96.7293 148.723 95.7493 150.45C94.816 152.13 94.3493 154.137 94.3493 156.47C94.3493 158.803 94.816 160.857 95.7493 162.63C96.7293 164.357 97.9893 165.687 99.5293 166.62C101.116 167.553 102.796 168.02 104.569 168.02C106.389 168.02 108.093 167.577 109.679 166.69C111.266 165.757 112.526 164.45 113.459 162.77C114.393 161.043 114.859 158.99 114.859 156.61ZM139.271 132.6C137.544 132.6 136.097 132.063 134.931 130.99C133.811 129.87 133.251 128.493 133.251 126.86C133.251 125.227 133.811 123.873 134.931 122.8C136.097 121.68 137.544 121.12 139.271 121.12C140.997 121.12 142.421 121.68 143.541 122.8C144.707 123.873 145.291 125.227 145.291 126.86C145.291 128.493 144.707 129.87 143.541 130.99C142.421 132.063 140.997 132.6 139.271 132.6ZM144.101 137.22V176H134.301V137.22H144.101ZM151.263 156.47C151.263 152.55 152.033 149.073 153.573 146.04C155.16 143.007 157.283 140.673 159.943 139.04C162.65 137.407 165.66 136.59 168.973 136.59C171.866 136.59 174.386 137.173 176.533 138.34C178.726 139.507 180.476 140.977 181.783 142.75V137.22H191.653V176H181.783V170.33C180.523 172.15 178.773 173.667 176.533 174.88C174.34 176.047 171.796 176.63 168.903 176.63C165.636 176.63 162.65 175.79 159.943 174.11C157.283 172.43 155.16 170.073 153.573 167.04C152.033 163.96 151.263 160.437 151.263 156.47ZM181.783 156.61C181.783 154.23 181.316 152.2 180.383 150.52C179.45 148.793 178.19 147.487 176.603 146.6C175.016 145.667 173.313 145.2 171.493 145.2C169.673 145.2 167.993 145.643 166.453 146.53C164.913 147.417 163.653 148.723 162.673 150.45C161.74 152.13 161.273 154.137 161.273 156.47C161.273 158.803 161.74 160.857 162.673 162.63C163.653 164.357 164.913 165.687 166.453 166.62C168.04 167.553 169.72 168.02 171.493 168.02C173.313 168.02 175.016 167.577 176.603 166.69C178.19 165.757 179.45 164.45 180.383 162.77C181.316 161.043 181.783 158.99 181.783 156.61ZM216.065 176.63C212.891 176.63 210.045 176.07 207.525 174.95C205.005 173.783 202.998 172.22 201.505 170.26C200.058 168.3 199.265 166.13 199.125 163.75H208.995C209.181 165.243 209.905 166.48 211.165 167.46C212.471 168.44 214.081 168.93 215.995 168.93C217.861 168.93 219.308 168.557 220.335 167.81C221.408 167.063 221.945 166.107 221.945 164.94C221.945 163.68 221.291 162.747 219.985 162.14C218.725 161.487 216.695 160.787 213.895 160.04C211.001 159.34 208.621 158.617 206.755 157.87C204.935 157.123 203.348 155.98 201.995 154.44C200.688 152.9 200.035 150.823 200.035 148.21C200.035 146.063 200.641 144.103 201.855 142.33C203.115 140.557 204.888 139.157 207.175 138.13C209.508 137.103 212.238 136.59 215.365 136.59C219.985 136.59 223.671 137.757 226.425 140.09C229.178 142.377 230.695 145.48 230.975 149.4H221.595C221.455 147.86 220.801 146.647 219.635 145.76C218.515 144.827 216.998 144.36 215.085 144.36C213.311 144.36 211.935 144.687 210.955 145.34C210.021 145.993 209.555 146.903 209.555 148.07C209.555 149.377 210.208 150.38 211.515 151.08C212.821 151.733 214.851 152.41 217.605 153.11C220.405 153.81 222.715 154.533 224.535 155.28C226.355 156.027 227.918 157.193 229.225 158.78C230.578 160.32 231.278 162.373 231.325 164.94C231.325 167.18 230.695 169.187 229.435 170.96C228.221 172.733 226.448 174.133 224.115 175.16C221.828 176.14 219.145 176.63 216.065 176.63Z" fill="#083D74"/>
</g>
<defs>
<clipPath id="clip0_141_9">
<rect width="262" height="356" rx="25" fill="white"/>
</clipPath>
</defs>
</svg>
